G04 #@! TF.GenerationSoftware,KiCad,Pcbnew,5.0-dev-unknown-3a73e77~62~ubuntu17.10.1*
G04 #@! TF.CreationDate,2018-02-27T23:18:37-07:00*
G04 #@! TF.ProjectId,CH340G-TYPE-C,4348333430472D545950452D432E6B69,rev?*
G04 #@! TF.SameCoordinates,Original*
G04 #@! TF.FileFunction,Legend,Top*
G04 #@! TF.FilePolarity,Positive*
%FSLAX46Y46*%
G04 Gerber Fmt 4.6, Leading zero omitted, Abs format (unit mm)*
G04 Created by KiCad (PCBNEW 5.0-dev-unknown-3a73e77~62~ubuntu17.10.1) date Tue Feb 27 23:18:37 2018*
%MOMM*%
%LPD*%
G01*
G04 APERTURE LIST*
%ADD10C,0.300000*%
%ADD11C,0.120000*%
%ADD12C,0.150000*%
G04 APERTURE END LIST*
D10*
X143000000Y-80678571D02*
X143500000Y-82178571D01*
X144000000Y-80678571D01*
X140464284Y-82178571D02*
X140464284Y-80678571D01*
X141321427Y-82178571D01*
X141321427Y-80678571D01*
X137785713Y-82178571D02*
X137785713Y-80678571D01*
X138357142Y-80678571D01*
X138499999Y-80750000D01*
X138571428Y-80821428D01*
X138642856Y-80964285D01*
X138642856Y-81178571D01*
X138571428Y-81321428D01*
X138499999Y-81392857D01*
X138357142Y-81464285D01*
X137785713Y-81464285D01*
X135892857Y-80750000D02*
X135750000Y-80678571D01*
X135535714Y-80678571D01*
X135321428Y-80750000D01*
X135178571Y-80892857D01*
X135107142Y-81035714D01*
X135035714Y-81321428D01*
X135035714Y-81535714D01*
X135107142Y-81821428D01*
X135178571Y-81964285D01*
X135321428Y-82107142D01*
X135535714Y-82178571D01*
X135678571Y-82178571D01*
X135892857Y-82107142D01*
X135964285Y-82035714D01*
X135964285Y-81535714D01*
X135678571Y-81535714D01*
D11*
X142582143Y-89997500D02*
X144082143Y-89997500D01*
X144082143Y-89997500D02*
X144082143Y-91517500D01*
X134582143Y-93017500D02*
X134582143Y-97257500D01*
X134582143Y-89997500D02*
X136082143Y-89997500D01*
X144082143Y-93017500D02*
X144082143Y-97257500D01*
X134582143Y-89997500D02*
X134582143Y-91517500D01*
X134350000Y-77370000D02*
X134350000Y-80030000D01*
X142030000Y-77370000D02*
X134350000Y-77370000D01*
X142030000Y-80030000D02*
X134350000Y-80030000D01*
X142030000Y-77370000D02*
X142030000Y-80030000D01*
X143300000Y-77370000D02*
X144630000Y-77370000D01*
X144630000Y-77370000D02*
X144630000Y-78700000D01*
X143990000Y-84757500D02*
X143990000Y-84317500D01*
X145010000Y-84757500D02*
X145010000Y-84317500D01*
X134490000Y-84317500D02*
X134490000Y-84757500D01*
X135510000Y-84317500D02*
X135510000Y-84757500D01*
D12*
X138998809Y-88459880D02*
X138998809Y-89174166D01*
X138951190Y-89317023D01*
X138855952Y-89412261D01*
X138713095Y-89459880D01*
X138617857Y-89459880D01*
X139998809Y-89459880D02*
X139427381Y-89459880D01*
X139713095Y-89459880D02*
X139713095Y-88459880D01*
X139617857Y-88602738D01*
X139522619Y-88697976D01*
X139427381Y-88745595D01*
M02*
