M48
;DRILL file {KiCad 5.0-dev-unknown-3a73e77~62~ubuntu17.10.1} date Tue Feb 27 23:19:14 2018
;FORMAT={-:-/ absolute / inch / decimal}
FMAT,2
INCH,TZ
T1C0.0157
T2C0.0394
T3C0.0433
T4C0.0512
T5C0.0335
%
G90
G05
M72
T1
X5.4055Y-3.4665
X5.5335Y-3.4154
X5.5413Y-3.4921
X5.3753Y-3.6086
X5.391Y-3.6361
X5.4225Y-3.6361
X5.4383Y-3.6086
X5.454Y-3.6361
X5.4698Y-3.6086
X5.5013Y-3.6086
X5.517Y-3.6361
X5.5328Y-3.6086
X5.5485Y-3.6361
X5.58Y-3.6361
X5.5958Y-3.6086
T2
X5.3417Y-3.0984
X5.4417Y-3.0984
X5.5417Y-3.0984
X5.6417Y-3.0984
T3
X5.315Y-3.8664
X5.656Y-3.8664
T4
X5.3269Y-3.6322
X5.6442Y-3.6322
T5
X5.3438Y-3.583
X5.6272Y-3.583
T0
M30
