G04 #@! TF.GenerationSoftware,KiCad,Pcbnew,5.0-dev-unknown-3a73e77~62~ubuntu17.10.1*
G04 #@! TF.CreationDate,2018-02-27T23:18:37-07:00*
G04 #@! TF.ProjectId,CH340G-TYPE-C,4348333430472D545950452D432E6B69,rev?*
G04 #@! TF.SameCoordinates,Original*
G04 #@! TF.FileFunction,Copper,L1,Top,Signal*
G04 #@! TF.FilePolarity,Positive*
%FSLAX46Y46*%
G04 Gerber Fmt 4.6, Leading zero omitted, Abs format (unit mm)*
G04 Created by KiCad (PCBNEW 5.0-dev-unknown-3a73e77~62~ubuntu17.10.1) date Tue Feb 27 23:18:37 2018*
%MOMM*%
%LPD*%
G01*
G04 APERTURE LIST*
%ADD10C,1.500000*%
%ADD11R,0.300000X0.700000*%
%ADD12C,1.400000*%
%ADD13C,0.600000*%
%ADD14R,1.700000X1.700000*%
%ADD15O,1.700000X1.700000*%
%ADD16R,1.000000X0.845000*%
%ADD17C,0.800000*%
%ADD18C,0.250000*%
G04 APERTURE END LIST*
D10*
X135302143Y-92257500D03*
D11*
X136582143Y-90347500D03*
X137082143Y-90347500D03*
X137582143Y-90347500D03*
X138082143Y-90347500D03*
X138582143Y-90347500D03*
X139082143Y-90347500D03*
X139582143Y-90347500D03*
X142082143Y-90347500D03*
X141082143Y-90347500D03*
X140582143Y-90347500D03*
X140082143Y-90347500D03*
X141582143Y-90347500D03*
D10*
X143362143Y-92257500D03*
D12*
X143662143Y-98207500D03*
X135002143Y-98207500D03*
D13*
X142132143Y-91657500D03*
X140532143Y-91657500D03*
X139732143Y-91657500D03*
X138932143Y-91657500D03*
X138132143Y-91657500D03*
X136532143Y-91657500D03*
X141732143Y-92357500D03*
X140932143Y-92357500D03*
X140132143Y-92357500D03*
X138532143Y-92357500D03*
X137732143Y-92357500D03*
X136932143Y-92357500D03*
D14*
X143300000Y-78700000D03*
D15*
X140760000Y-78700000D03*
X138220000Y-78700000D03*
X135680000Y-78700000D03*
D16*
X144500000Y-85500000D03*
X144500000Y-83575000D03*
X135000000Y-85500000D03*
X135000000Y-83575000D03*
D17*
X140550000Y-86750000D03*
X137300000Y-88050000D03*
X140750000Y-88700000D03*
D18*
X134250000Y-85500000D02*
X134000000Y-85250000D01*
X135000000Y-85500000D02*
X134250000Y-85500000D01*
X134830001Y-79549999D02*
X135680000Y-78700000D01*
X134000000Y-85250000D02*
X134000000Y-80380000D01*
X134000000Y-80380000D02*
X134830001Y-79549999D01*
X136582143Y-90347500D02*
X136582143Y-90147500D01*
X135000000Y-86172500D02*
X135000000Y-85500000D01*
X136582143Y-90147500D02*
X135000000Y-88565357D01*
X135000000Y-88565357D02*
X135000000Y-86172500D01*
X142082143Y-90347500D02*
X142082143Y-91607500D01*
X142082143Y-91607500D02*
X142132143Y-91657500D01*
X136582143Y-90347500D02*
X136582143Y-91607500D01*
X136582143Y-91607500D02*
X136532143Y-91657500D01*
X135302143Y-92257500D02*
X134552144Y-91507501D01*
X134552144Y-91077497D02*
X135372142Y-90257499D01*
X134552144Y-91507501D02*
X134552144Y-91077497D01*
X135372142Y-90257499D02*
X136092142Y-90257499D01*
X136092142Y-90257499D02*
X136182143Y-90347500D01*
X136182143Y-90347500D02*
X136582143Y-90347500D01*
X142082143Y-90347500D02*
X142082143Y-90147500D01*
X142082143Y-90147500D02*
X142482143Y-89747500D01*
X142482143Y-89747500D02*
X143334634Y-89747500D01*
X143334634Y-89747500D02*
X143682144Y-90095010D01*
X143682144Y-90095010D02*
X143682144Y-91937499D01*
X143682144Y-91937499D02*
X143362143Y-92257500D01*
X144200000Y-83575000D02*
X143450000Y-83575000D01*
X142082143Y-89747500D02*
X142082143Y-90347500D01*
X143450000Y-83575000D02*
X142082143Y-84942857D01*
X142082143Y-84942857D02*
X142082143Y-89747500D01*
X141475001Y-86250000D02*
X141475001Y-89048001D01*
X140550000Y-86750000D02*
X141115685Y-86750000D01*
X141475001Y-84913589D02*
X141475001Y-86250000D01*
X141115685Y-86750000D02*
X141475001Y-86390684D01*
X141475001Y-86390684D02*
X141475001Y-86250000D01*
X138082143Y-88832143D02*
X137300000Y-88050000D01*
X138082143Y-90347500D02*
X138082143Y-88832143D01*
X143300000Y-78700000D02*
X143300000Y-83088590D01*
X143300000Y-83088590D02*
X141475001Y-84913589D01*
X140582143Y-89747500D02*
X140582143Y-90347500D01*
X141475001Y-89048001D02*
X140850503Y-89672499D01*
X140850503Y-89672499D02*
X140657144Y-89672499D01*
X140657144Y-89672499D02*
X140582143Y-89747500D01*
X138082143Y-90347500D02*
X138082143Y-91607500D01*
X138082143Y-91607500D02*
X138132143Y-91657500D01*
X140582143Y-90347500D02*
X140582143Y-91607500D01*
X140582143Y-91607500D02*
X140532143Y-91657500D01*
X135000000Y-83575000D02*
X135750000Y-83575000D01*
X135750000Y-83575000D02*
X138582143Y-86407143D01*
X138582143Y-86407143D02*
X138582143Y-89747500D01*
X138582143Y-89747500D02*
X138582143Y-90347500D01*
X139732143Y-91657500D02*
X139732143Y-91233236D01*
X139157144Y-91022501D02*
X139082143Y-90947500D01*
X139082143Y-90947500D02*
X139082143Y-90347500D01*
X139732143Y-91233236D02*
X139521408Y-91022501D01*
X139521408Y-91022501D02*
X139157144Y-91022501D01*
X139082143Y-90347500D02*
X139082143Y-79562143D01*
X139082143Y-79562143D02*
X138220000Y-78700000D01*
X140750000Y-88700000D02*
X139582143Y-89867857D01*
X139582143Y-89867857D02*
X139582143Y-90347500D01*
X140760000Y-78700000D02*
X139582143Y-79877857D01*
X139582143Y-79877857D02*
X139582143Y-90347500D01*
X144437144Y-86409644D02*
X144500000Y-86346788D01*
X144500000Y-86346788D02*
X144500000Y-85500000D01*
X144437144Y-86409644D02*
X144437144Y-92773501D01*
X140132143Y-92781764D02*
X140132143Y-92357500D01*
X144437144Y-92773501D02*
X143878144Y-93332501D01*
X143878144Y-93332501D02*
X140682880Y-93332501D01*
X140682880Y-93332501D02*
X140132143Y-92781764D01*
M02*
